<svg xmlns="http://www.w3.org/2000/svg" xmlns:xlink="http://www.w3.org/1999/xlink" width="500" zoomAndPan="magnify" viewBox="0 0 375 374.999991" height="500" preserveAspectRatio="xMidYMid meet" version="1.2"><g id="090694367f"><path style=" stroke:none;fill-rule:nonzero;fill:#ffcf6e;fill-opacity:1;" d="M 375 113.476562 L 375 261.523438 C 375 263.890625 374.113281 266.253906 372.339844 267.730469 L 267.730469 372.339844 C 265.957031 374.113281 263.890625 375 261.523438 375 L 113.476562 375 C 111.109375 375 108.746094 374.113281 107.269531 372.339844 L 2.660156 267.730469 C 0.886719 265.957031 0 263.890625 0 261.523438 L 0 113.476562 C 0 111.109375 0.886719 108.746094 2.660156 107.269531 L 107.269531 2.660156 C 109.042969 0.886719 111.109375 0 113.476562 0 L 261.523438 0 C 263.890625 0 266.253906 0.886719 267.730469 2.660156 L 372.339844 107.269531 C 374.113281 109.042969 375 111.109375 375 113.476562 Z M 357.269531 257.683594 L 357.269531 117.316406 L 257.683594 17.730469 L 117.316406 17.730469 L 17.730469 117.316406 L 17.730469 257.980469 L 117.019531 357.566406 L 257.683594 357.566406 Z M 357.269531 257.683594 "/><path style=" stroke:none;fill-rule:nonzero;fill:#ffcf6e;fill-opacity:1;" d="M 346.335938 135.933594 L 346.335938 239.066406 C 346.335938 242.316406 343.675781 244.976562 340.425781 244.976562 C 337.175781 244.976562 334.515625 242.316406 334.515625 239.066406 L 334.515625 135.933594 C 334.515625 132.683594 337.175781 130.023438 340.425781 130.023438 C 343.675781 130.023438 346.335938 132.683594 346.335938 135.933594 Z M 346.335938 135.933594 "/><path style=" stroke:none;fill-rule:nonzero;fill:#ffcf6e;fill-opacity:1;" d="M 336.289062 111.703125 C 338.652344 114.066406 338.652344 117.613281 336.289062 119.976562 C 335.105469 121.160156 333.628906 121.75 332.152344 121.75 C 330.671875 121.75 329.195312 121.160156 328.015625 119.976562 L 255.023438 46.984375 C 252.660156 44.621094 252.660156 40.78125 255.023438 38.710938 C 257.386719 36.347656 261.230469 36.347656 263.296875 38.710938 Z M 336.289062 111.703125 "/><path style=" stroke:none;fill-rule:nonzero;fill:#ffcf6e;fill-opacity:1;" d="M 336.289062 255.023438 C 338.652344 257.386719 338.652344 260.933594 336.289062 263.296875 L 263.296875 336.289062 C 262.117188 337.46875 260.636719 338.0625 259.160156 338.0625 C 257.683594 338.0625 256.207031 337.46875 255.023438 336.289062 C 252.660156 333.925781 252.660156 330.378906 255.023438 328.015625 L 328.015625 255.023438 C 330.378906 252.660156 334.21875 252.660156 336.289062 255.023438 Z M 336.289062 255.023438 "/><path style=" stroke:none;fill-rule:nonzero;fill:#ffcf6e;fill-opacity:1;" d="M 320.332031 145.980469 L 320.332031 228.722656 C 320.332031 231.972656 317.671875 234.632812 314.421875 234.632812 C 311.171875 234.632812 308.511719 231.972656 308.511719 228.722656 L 308.511719 145.980469 C 308.511719 142.730469 311.171875 140.070312 314.421875 140.070312 C 317.671875 140.070312 320.332031 142.730469 320.332031 145.980469 Z M 320.332031 145.980469 "/><path style=" stroke:none;fill-rule:nonzero;fill:#ffcf6e;fill-opacity:1;" d="M 310.875 122.929688 C 313.238281 125.296875 313.238281 128.839844 310.875 131.207031 C 309.691406 132.386719 308.214844 132.980469 306.738281 132.980469 C 305.261719 132.980469 303.78125 132.386719 302.601562 131.207031 L 243.792969 72.695312 C 241.429688 70.332031 241.429688 66.488281 243.792969 64.421875 C 246.160156 62.058594 249.703125 62.058594 252.070312 64.421875 Z M 310.875 122.929688 "/><path style=" stroke:none;fill-rule:nonzero;fill:#ffcf6e;fill-opacity:1;" d="M 310.875 243.792969 C 313.238281 246.160156 313.238281 250 310.875 252.070312 L 252.363281 310.578125 C 251.183594 311.761719 249.703125 312.351562 248.226562 312.351562 C 246.75 312.351562 245.273438 311.761719 244.089844 310.578125 C 241.726562 308.214844 241.726562 304.667969 244.089844 302.304688 L 302.601562 243.792969 C 304.667969 241.429688 308.511719 241.429688 310.875 243.792969 Z M 310.875 243.792969 "/><path style=" stroke:none;fill-rule:nonzero;fill:#ffcf6e;fill-opacity:1;" d="M 294.328125 159.574219 L 294.328125 215.128906 C 294.328125 218.378906 291.667969 221.039062 288.417969 221.039062 C 285.164062 221.039062 282.507812 218.378906 282.507812 215.128906 L 282.507812 159.574219 C 282.507812 156.324219 285.164062 153.664062 288.417969 153.664062 C 291.667969 153.664062 294.328125 156.324219 294.328125 159.574219 Z M 294.328125 159.574219 "/><path style=" stroke:none;fill-rule:nonzero;fill:#ffcf6e;fill-opacity:1;" d="M 282.800781 131.5 C 285.164062 133.863281 285.164062 137.410156 282.800781 139.777344 C 281.621094 140.957031 280.140625 141.546875 278.664062 141.546875 C 277.1875 141.546875 275.710938 140.957031 274.527344 139.777344 L 234.929688 100.769531 C 232.566406 98.402344 232.566406 94.5625 234.929688 92.492188 C 237.292969 90.128906 240.839844 90.128906 243.203125 92.492188 Z M 282.800781 131.5 "/><path style=" stroke:none;fill-rule:nonzero;fill:#ffcf6e;fill-opacity:1;" d="M 282.800781 234.929688 C 285.164062 237.292969 285.164062 240.839844 282.800781 243.203125 L 243.5 282.800781 C 242.316406 283.984375 240.839844 284.574219 239.363281 284.574219 C 237.882812 284.574219 236.40625 283.984375 235.222656 282.800781 C 232.859375 280.4375 232.859375 276.890625 235.222656 274.527344 L 274.527344 235.222656 C 276.597656 232.566406 280.4375 232.566406 282.800781 234.929688 Z M 282.800781 234.929688 "/><path style=" stroke:none;fill-rule:nonzero;fill:#ffcf6e;fill-opacity:1;" d="M 187.351562 102.246094 C 234.339844 102.246094 272.457031 140.367188 272.457031 187.351562 C 272.457031 234.339844 234.339844 272.457031 187.351562 272.457031 C 140.367188 272.457031 102.246094 234.339844 102.246094 187.351562 C 102.246094 140.660156 140.660156 102.246094 187.351562 102.246094 Z M 255.023438 187.351562 C 255.023438 150.117188 224.882812 119.976562 187.648438 119.976562 C 150.414062 119.976562 120.273438 150.117188 120.273438 187.351562 C 120.273438 224.585938 150.414062 254.726562 187.648438 254.726562 C 224.585938 255.023438 255.023438 224.585938 255.023438 187.351562 Z M 255.023438 187.351562 "/><path style=" stroke:none;fill-rule:nonzero;fill:#ffcf6e;fill-opacity:1;" d="M 239.066406 28.664062 C 242.316406 28.664062 244.976562 31.324219 244.976562 34.574219 C 244.976562 37.824219 242.316406 40.484375 239.066406 40.484375 L 135.933594 40.484375 C 132.683594 40.484375 130.023438 37.824219 130.023438 34.574219 C 130.023438 31.324219 132.683594 28.664062 135.933594 28.664062 Z M 239.066406 28.664062 "/><path style=" stroke:none;fill-rule:nonzero;fill:#ffcf6e;fill-opacity:1;" d="M 239.066406 334.515625 C 242.316406 334.515625 244.976562 337.175781 244.976562 340.425781 C 244.976562 343.675781 242.316406 346.335938 239.066406 346.335938 L 135.933594 346.335938 C 132.683594 346.335938 130.023438 343.675781 130.023438 340.425781 C 130.023438 337.175781 132.683594 334.515625 135.933594 334.515625 Z M 239.066406 334.515625 "/><path style=" stroke:none;fill-rule:nonzero;fill:#ffcf6e;fill-opacity:1;" d="M 229.019531 54.667969 C 232.269531 54.667969 234.929688 57.328125 234.929688 60.578125 C 234.929688 63.828125 232.269531 66.488281 229.019531 66.488281 L 146.277344 66.488281 C 143.027344 66.488281 140.367188 63.828125 140.367188 60.578125 C 140.367188 57.328125 143.027344 54.667969 146.277344 54.667969 Z M 229.019531 54.667969 "/><path style=" stroke:none;fill-rule:nonzero;fill:#ffcf6e;fill-opacity:1;" d="M 229.019531 308.511719 C 232.269531 308.511719 234.929688 311.171875 234.929688 314.421875 C 234.929688 317.671875 232.269531 320.332031 229.019531 320.332031 L 146.277344 320.332031 C 143.027344 320.332031 140.367188 317.671875 140.367188 314.421875 C 140.367188 311.171875 143.027344 308.511719 146.277344 308.511719 Z M 229.019531 308.511719 "/><path style=" stroke:none;fill-rule:nonzero;fill:#ffcf6e;fill-opacity:1;" d="M 215.425781 80.671875 C 218.675781 80.671875 221.335938 83.332031 221.335938 86.582031 C 221.335938 89.835938 218.675781 92.492188 215.425781 92.492188 L 159.574219 92.492188 C 156.324219 92.492188 153.664062 89.835938 153.664062 86.582031 C 153.664062 83.332031 156.324219 80.671875 159.574219 80.671875 Z M 215.425781 80.671875 "/><path style=" stroke:none;fill-rule:nonzero;fill:#ffcf6e;fill-opacity:1;" d="M 215.425781 282.507812 C 218.675781 282.507812 221.335938 285.164062 221.335938 288.417969 C 221.335938 291.667969 218.675781 294.328125 215.425781 294.328125 L 159.574219 294.328125 C 156.324219 294.328125 153.664062 291.667969 153.664062 288.417969 C 153.664062 285.164062 156.324219 282.507812 159.574219 282.507812 Z M 215.425781 282.507812 "/><path style=" stroke:none;fill-rule:nonzero;fill:#ffcf6e;fill-opacity:1;" d="M 140.070312 92.199219 C 142.433594 94.5625 142.433594 98.109375 140.070312 100.472656 L 100.769531 140.070312 C 99.585938 141.253906 98.109375 141.84375 96.632812 141.84375 C 95.152344 141.84375 93.675781 141.253906 92.492188 140.070312 C 90.128906 137.707031 90.128906 134.160156 92.492188 131.796875 L 131.796875 92.492188 C 133.867188 89.835938 137.707031 89.835938 140.070312 92.199219 Z M 140.070312 92.199219 "/><path style=" stroke:none;fill-rule:nonzero;fill:#ffcf6e;fill-opacity:1;" d="M 140.070312 274.230469 C 142.433594 276.597656 142.433594 280.4375 140.070312 282.507812 C 138.890625 283.6875 137.410156 284.277344 135.933594 284.277344 C 134.457031 284.277344 132.980469 283.6875 131.796875 282.507812 L 92.199219 243.5 C 89.835938 241.132812 89.835938 237.589844 92.199219 235.222656 C 94.5625 232.859375 98.109375 232.859375 100.472656 235.222656 Z M 140.070312 274.230469 "/><path style=" stroke:none;fill-rule:nonzero;fill:#ffcf6e;fill-opacity:1;" d="M 131.207031 64.125 C 133.570312 66.488281 133.570312 70.035156 131.207031 72.398438 L 72.695312 131.207031 C 71.511719 132.386719 70.035156 132.980469 68.558594 132.980469 C 67.082031 132.980469 65.601562 132.386719 64.421875 131.207031 C 62.058594 128.839844 62.058594 125.296875 64.421875 122.929688 L 122.929688 64.421875 C 125 62.058594 128.839844 62.058594 131.207031 64.125 Z M 131.207031 64.125 "/><path style=" stroke:none;fill-rule:nonzero;fill:#ffcf6e;fill-opacity:1;" d="M 131.207031 302.304688 C 133.570312 304.667969 133.570312 308.214844 131.207031 310.578125 C 130.023438 311.761719 128.546875 312.351562 127.070312 312.351562 C 125.589844 312.351562 124.113281 311.761719 122.929688 310.578125 L 64.125 252.070312 C 61.761719 249.703125 61.761719 246.160156 64.125 243.792969 C 66.488281 241.429688 70.035156 241.429688 72.398438 243.792969 Z M 131.207031 302.304688 "/><path style=" stroke:none;fill-rule:nonzero;fill:#ffcf6e;fill-opacity:1;" d="M 119.976562 38.710938 C 122.339844 41.074219 122.339844 44.917969 119.976562 46.984375 L 46.984375 119.976562 C 45.804688 121.160156 44.328125 121.75 42.847656 121.75 C 41.371094 121.75 39.894531 121.160156 38.710938 119.976562 C 36.347656 117.613281 36.347656 114.066406 38.710938 111.703125 L 111.703125 38.710938 C 113.769531 36.347656 117.613281 36.347656 119.976562 38.710938 Z M 119.976562 38.710938 "/><path style=" stroke:none;fill-rule:nonzero;fill:#ffcf6e;fill-opacity:1;" d="M 119.976562 328.015625 C 122.339844 330.378906 122.339844 333.925781 119.976562 336.289062 C 118.792969 337.46875 117.316406 338.0625 115.839844 338.0625 C 114.363281 338.0625 112.882812 337.46875 111.703125 336.289062 L 38.710938 263.296875 C 36.347656 260.933594 36.347656 257.386719 38.710938 255.023438 C 41.074219 252.660156 44.917969 252.660156 46.984375 255.023438 Z M 119.976562 328.015625 "/><path style=" stroke:none;fill-rule:nonzero;fill:#ffcf6e;fill-opacity:1;" d="M 92.492188 159.574219 L 92.492188 215.128906 C 92.492188 218.378906 89.835938 221.039062 86.582031 221.039062 C 83.332031 221.039062 80.671875 218.378906 80.671875 215.128906 L 80.671875 159.574219 C 80.671875 156.324219 83.332031 153.664062 86.582031 153.664062 C 89.835938 153.664062 92.492188 156.324219 92.492188 159.574219 Z M 92.492188 159.574219 "/><path style=" stroke:none;fill-rule:nonzero;fill:#ffcf6e;fill-opacity:1;" d="M 66.488281 145.980469 L 66.488281 228.722656 C 66.488281 231.972656 63.828125 234.632812 60.578125 234.632812 C 57.328125 234.632812 54.667969 231.972656 54.667969 228.722656 L 54.667969 145.980469 C 54.667969 142.730469 57.328125 140.070312 60.578125 140.070312 C 63.828125 140.070312 66.488281 142.730469 66.488281 145.980469 Z M 66.488281 145.980469 "/><path style=" stroke:none;fill-rule:nonzero;fill:#ffcf6e;fill-opacity:1;" d="M 40.484375 135.933594 L 40.484375 239.066406 C 40.484375 242.316406 37.824219 244.976562 34.574219 244.976562 C 31.324219 244.976562 28.664062 242.316406 28.664062 239.066406 L 28.664062 135.933594 C 28.664062 132.683594 31.324219 130.023438 34.574219 130.023438 C 37.824219 130.023438 40.484375 132.683594 40.484375 135.933594 Z M 40.484375 135.933594 "/></g></svg>